<svg width="1090" height="564" viewBox="0 0 1090 564" fill="none" xmlns="http://www.w3.org/2000/svg">
<g filter="url(#filter0_d_122_3035)">
<rect x="80" y="130" width="929" height="101" rx="22" fill="#D9D9D9"/>
</g>
<path d="M490.969 41.1562H478.875V59.625L485.969 60.3438V63H468.25V60.3438L473 59.625V19.25L468.25 18.5312V15.875H500.062L500.781 25.1562H498.031L496.344 19.6562H478.875V37.375H490.969L491.906 34.0625H493.844V44.4688H491.906L490.969 41.1562ZM536.438 60.3438L540.75 59.625L535.812 47.4688H517.062L512.156 59.625L516.562 60.3438V63H503.156V60.3438L508.094 59.625L524.5 19.0625L523.188 15.9688L528.25 13.8438L546.938 59.625L551.969 60.3438V63H536.438V60.3438ZM518.531 43.6875H534.438L526.469 23.625L518.531 43.6875ZM606.562 68.3438C608.042 68.6354 609.188 68.7812 610 68.7812C610.812 68.7812 612.229 68.0938 614.25 66.7188L615.938 68.4062C611.854 72.3438 608.927 74.3125 607.156 74.3125C605.698 74.3125 602.958 73.2812 598.938 71.2188L591.406 67.2188C586.927 64.8854 582.885 63.0833 579.281 61.8125L586.281 61.1562C589.719 61.6771 593.323 62.8021 597.094 64.5312L599.562 65.6875C602.771 67.1667 605.104 68.0521 606.562 68.3438ZM560.031 56.9375C558.01 54.8333 556.469 52.3542 555.406 49.5C554.365 46.625 553.844 43.7292 553.844 40.8125C553.844 37.875 554.135 35.2812 554.719 33.0312C555.302 30.7812 556.104 28.7292 557.125 26.875C558.167 25.0208 559.406 23.3646 560.844 21.9062C562.302 20.4479 563.896 19.2188 565.625 18.2188C569.146 16.1771 572.917 15.1562 576.938 15.1562C580.958 15.1562 584.448 15.75 587.406 16.9375C590.365 18.1042 592.854 19.7188 594.875 21.7812C598.979 25.9688 601.031 31.4688 601.031 38.2812C601.031 45.8646 598.729 52.0521 594.125 56.8438C592 59.0521 589.521 60.75 586.688 61.9375C583.875 63.125 580.719 63.7188 577.219 63.7188C573.74 63.7188 570.51 63.1146 567.531 61.9062C564.573 60.6979 562.073 59.0417 560.031 56.9375ZM564.625 24.6875C563.104 26.4583 561.927 28.5208 561.094 30.875C560.281 33.2292 559.875 35.5312 559.875 37.7812C559.875 40.0312 560.042 42.0521 560.375 43.8438C560.708 45.6354 561.198 47.3333 561.844 48.9375C562.51 50.5208 563.333 51.9896 564.312 53.3438C565.312 54.6979 566.469 55.8646 567.781 56.8438C570.573 58.9271 573.865 59.9688 577.656 59.9688C582.844 59.9688 587.062 58.2083 590.312 54.6875C593.5 51.2292 595.094 46.7188 595.094 41.1562C595.094 35.0312 593.708 29.9375 590.938 25.875C587.771 21.2292 583.146 18.9062 577.062 18.9062C572.042 18.9062 567.896 20.8333 564.625 24.6875ZM610.156 53.875C610.156 58.2292 612.823 60.4062 618.156 60.4062C620.177 60.4062 621.792 59.9583 623 59.0625C624.104 58.25 624.656 57.2292 624.656 56C624.656 54.7083 624.333 53.7083 623.688 53C622.417 51.6042 620.573 50.4896 618.156 49.6562C615.76 48.8229 613.958 48.0312 612.75 47.2812C611.562 46.5104 610.625 45.7083 609.938 44.875C608.75 43.4583 608.156 41.9375 608.156 40.3125C608.156 38.6667 608.458 37.3229 609.062 36.2812C609.688 35.2396 610.5 34.3542 611.5 33.625C613.625 32.1042 616.083 31.3438 618.875 31.3438C622.229 31.3438 625.156 32.0833 627.656 33.5625L626.938 39.5938H625.25C625.25 36.3229 623.073 34.6875 618.719 34.6875C616.823 34.6875 615.385 35.0625 614.406 35.8125C613.427 36.5417 612.938 37.4583 612.938 38.5625C612.938 41 615.656 43.2083 621.094 45.1875C626.177 47.0625 629.042 49.5104 629.688 52.5312C629.854 53.3854 629.938 54.4062 629.938 55.5938C629.938 56.7604 629.552 57.8958 628.781 59C628.031 60.1042 627.083 61 625.938 61.6875C623.708 63.0417 621.135 63.7188 618.219 63.7188C615.365 63.7188 612.698 63.1667 610.219 62.0625C609.115 61.5833 608.156 61.0312 607.344 60.4062L608.531 53.875H610.156Z" fill="white"/>
<path d="M193.831 164.544L184.135 198H179.239L171.463 171.072L163.399 198L158.551 198.048L149.191 164.544H153.847L161.143 192.912L169.207 164.544H174.103L181.783 192.816L189.127 164.544H193.831ZM220.068 171.216C222.052 171.216 223.844 171.648 225.444 172.512C227.044 173.344 228.292 174.608 229.188 176.304C230.116 178 230.58 180.064 230.58 182.496V198H226.26V183.12C226.26 180.496 225.604 178.496 224.292 177.12C222.98 175.712 221.188 175.008 218.916 175.008C216.612 175.008 214.772 175.728 213.396 177.168C212.052 178.608 211.38 180.704 211.38 183.456V198H207.012V162.48H211.38V175.44C212.244 174.096 213.428 173.056 214.932 172.32C216.468 171.584 218.18 171.216 220.068 171.216ZM270.115 183.84C270.115 184.672 270.067 185.552 269.971 186.48H248.947C249.107 189.072 249.987 191.104 251.587 192.576C253.219 194.016 255.187 194.736 257.491 194.736C259.379 194.736 260.947 194.304 262.195 193.44C263.475 192.544 264.371 191.36 264.883 189.888H269.587C268.883 192.416 267.475 194.48 265.363 196.08C263.251 197.648 260.627 198.432 257.491 198.432C254.995 198.432 252.755 197.872 250.771 196.752C248.819 195.632 247.283 194.048 246.163 192C245.043 189.92 244.483 187.52 244.483 184.8C244.483 182.08 245.027 179.696 246.115 177.648C247.203 175.6 248.723 174.032 250.675 172.944C252.659 171.824 254.931 171.264 257.491 171.264C259.987 171.264 262.195 171.808 264.115 172.896C266.035 173.984 267.507 175.488 268.531 177.408C269.587 179.296 270.115 181.44 270.115 183.84ZM265.603 182.928C265.603 181.264 265.235 179.84 264.499 178.656C263.763 177.44 262.755 176.528 261.475 175.92C260.227 175.28 258.835 174.96 257.299 174.96C255.091 174.96 253.203 175.664 251.635 177.072C250.099 178.48 249.219 180.432 248.995 182.928H265.603ZM297.096 171.216C300.296 171.216 302.888 172.192 304.872 174.144C306.856 176.064 307.848 178.848 307.848 182.496V198H303.528V183.12C303.528 180.496 302.872 178.496 301.56 177.12C300.248 175.712 298.456 175.008 296.184 175.008C293.88 175.008 292.04 175.728 290.664 177.168C289.32 178.608 288.648 180.704 288.648 183.456V198H284.28V171.696H288.648V175.44C289.512 174.096 290.68 173.056 292.152 172.32C293.656 171.584 295.304 171.216 297.096 171.216ZM379.62 171.696L371.412 198H366.9L360.564 177.12L354.228 198H349.716L341.46 171.696H345.924L351.972 193.776L358.5 171.696H362.964L369.348 193.824L375.3 171.696H379.62ZM390.723 184.752C390.723 182.064 391.267 179.712 392.355 177.696C393.443 175.648 394.931 174.064 396.819 172.944C398.739 171.824 400.867 171.264 403.203 171.264C405.507 171.264 407.507 171.76 409.203 172.752C410.899 173.744 412.163 174.992 412.995 176.496V171.696H417.411V198H412.995V193.104C412.131 194.64 410.835 195.92 409.107 196.944C407.411 197.936 405.427 198.432 403.155 198.432C400.819 198.432 398.707 197.856 396.819 196.704C394.931 195.552 393.443 193.936 392.355 191.856C391.267 189.776 390.723 187.408 390.723 184.752ZM412.995 184.8C412.995 182.816 412.595 181.088 411.795 179.616C410.995 178.144 409.907 177.024 408.531 176.256C407.187 175.456 405.699 175.056 404.067 175.056C402.435 175.056 400.947 175.44 399.603 176.208C398.259 176.976 397.187 178.096 396.387 179.568C395.587 181.04 395.187 182.768 395.187 184.752C395.187 186.768 395.587 188.528 396.387 190.032C397.187 191.504 398.259 192.64 399.603 193.44C400.947 194.208 402.435 194.592 404.067 194.592C405.699 194.592 407.187 194.208 408.531 193.44C409.907 192.64 410.995 191.504 411.795 190.032C412.595 188.528 412.995 186.784 412.995 184.8ZM442.505 198.432C440.489 198.432 438.681 198.096 437.081 197.424C435.481 196.72 434.217 195.76 433.289 194.544C432.361 193.296 431.849 191.872 431.753 190.272H436.265C436.393 191.584 437.001 192.656 438.089 193.488C439.209 194.32 440.665 194.736 442.457 194.736C444.121 194.736 445.433 194.368 446.393 193.632C447.353 192.896 447.833 191.968 447.833 190.848C447.833 189.696 447.321 188.848 446.297 188.304C445.273 187.728 443.689 187.168 441.545 186.624C439.593 186.112 437.993 185.6 436.745 185.088C435.529 184.544 434.473 183.76 433.577 182.736C432.713 181.68 432.281 180.304 432.281 178.608C432.281 177.264 432.681 176.032 433.481 174.912C434.281 173.792 435.417 172.912 436.889 172.272C438.361 171.6 440.041 171.264 441.929 171.264C444.841 171.264 447.193 172 448.985 173.472C450.777 174.944 451.737 176.96 451.865 179.52H447.497C447.401 178.144 446.841 177.04 445.817 176.208C444.825 175.376 443.481 174.96 441.785 174.96C440.217 174.96 438.969 175.296 438.041 175.968C437.113 176.64 436.649 177.52 436.649 178.608C436.649 179.472 436.921 180.192 437.465 180.768C438.041 181.312 438.745 181.76 439.577 182.112C440.441 182.432 441.625 182.8 443.129 183.216C445.017 183.728 446.553 184.24 447.737 184.752C448.921 185.232 449.929 185.968 450.761 186.96C451.625 187.952 452.073 189.248 452.105 190.848C452.105 192.288 451.705 193.584 450.905 194.736C450.105 195.888 448.969 196.8 447.497 197.472C446.057 198.112 444.393 198.432 442.505 198.432ZM493.196 175.296V190.8C493.196 192.08 493.468 192.992 494.012 193.536C494.556 194.048 495.5 194.304 496.844 194.304H500.06V198H496.124C493.692 198 491.868 197.44 490.652 196.32C489.436 195.2 488.828 193.36 488.828 190.8V175.296H485.42V171.696H488.828V165.072H493.196V171.696H500.06V175.296H493.196ZM526.808 171.216C528.792 171.216 530.584 171.648 532.184 172.512C533.784 173.344 535.032 174.608 535.928 176.304C536.856 178 537.32 180.064 537.32 182.496V198H533V183.12C533 180.496 532.344 178.496 531.032 177.12C529.72 175.712 527.928 175.008 525.656 175.008C523.352 175.008 521.512 175.728 520.136 177.168C518.792 178.608 518.12 180.704 518.12 183.456V198H513.752V162.48H518.12V175.44C518.984 174.096 520.168 173.056 521.672 172.32C523.208 171.584 524.92 171.216 526.808 171.216ZM555.111 167.424C554.279 167.424 553.575 167.136 552.999 166.56C552.423 165.984 552.135 165.28 552.135 164.448C552.135 163.616 552.423 162.912 552.999 162.336C553.575 161.76 554.279 161.472 555.111 161.472C555.911 161.472 556.583 161.76 557.127 162.336C557.703 162.912 557.991 163.616 557.991 164.448C557.991 165.28 557.703 165.984 557.127 166.56C556.583 167.136 555.911 167.424 555.111 167.424ZM557.223 171.696V198H552.855V171.696H557.223ZM582.38 198.432C580.364 198.432 578.556 198.096 576.956 197.424C575.356 196.72 574.092 195.76 573.164 194.544C572.236 193.296 571.724 191.872 571.628 190.272H576.14C576.268 191.584 576.876 192.656 577.964 193.488C579.084 194.32 580.54 194.736 582.332 194.736C583.996 194.736 585.308 194.368 586.268 193.632C587.228 192.896 587.708 191.968 587.708 190.848C587.708 189.696 587.196 188.848 586.172 188.304C585.148 187.728 583.564 187.168 581.42 186.624C579.468 186.112 577.868 185.6 576.62 185.088C575.404 184.544 574.348 183.76 573.452 182.736C572.588 181.68 572.156 180.304 572.156 178.608C572.156 177.264 572.556 176.032 573.356 174.912C574.156 173.792 575.292 172.912 576.764 172.272C578.236 171.6 579.916 171.264 581.804 171.264C584.716 171.264 587.068 172 588.86 173.472C590.652 174.944 591.612 176.96 591.74 179.52H587.372C587.276 178.144 586.716 177.04 585.692 176.208C584.7 175.376 583.356 174.96 581.66 174.96C580.092 174.96 578.844 175.296 577.916 175.968C576.988 176.64 576.524 177.52 576.524 178.608C576.524 179.472 576.796 180.192 577.34 180.768C577.916 181.312 578.62 181.76 579.452 182.112C580.316 182.432 581.5 182.8 583.004 183.216C584.892 183.728 586.428 184.24 587.612 184.752C588.796 185.232 589.804 185.968 590.636 186.96C591.5 187.952 591.948 189.248 591.98 190.848C591.98 192.288 591.58 193.584 590.78 194.736C589.98 195.888 588.844 196.8 587.372 197.472C585.932 198.112 584.268 198.432 582.38 198.432ZM659.375 171.216C661.423 171.216 663.247 171.648 664.847 172.512C666.447 173.344 667.711 174.608 668.639 176.304C669.567 178 670.031 180.064 670.031 182.496V198H665.711V183.12C665.711 180.496 665.055 178.496 663.743 177.12C662.463 175.712 660.719 175.008 658.511 175.008C656.239 175.008 654.431 175.744 653.087 177.216C651.743 178.656 651.071 180.752 651.071 183.504V198H646.751V183.12C646.751 180.496 646.095 178.496 644.783 177.12C643.503 175.712 641.759 175.008 639.551 175.008C637.279 175.008 635.471 175.744 634.127 177.216C632.783 178.656 632.111 180.752 632.111 183.504V198H627.743V171.696H632.111V175.488C632.975 174.112 634.127 173.056 635.567 172.32C637.039 171.584 638.655 171.216 640.415 171.216C642.623 171.216 644.575 171.712 646.271 172.704C647.967 173.696 649.231 175.152 650.063 177.072C650.799 175.216 652.015 173.776 653.711 172.752C655.407 171.728 657.295 171.216 659.375 171.216ZM683.964 184.752C683.964 182.064 684.508 179.712 685.596 177.696C686.684 175.648 688.172 174.064 690.06 172.944C691.98 171.824 694.108 171.264 696.444 171.264C698.748 171.264 700.748 171.76 702.444 172.752C704.14 173.744 705.404 174.992 706.236 176.496V171.696H710.652V198H706.236V193.104C705.372 194.64 704.076 195.92 702.348 196.944C700.652 197.936 698.668 198.432 696.396 198.432C694.06 198.432 691.948 197.856 690.06 196.704C688.172 195.552 686.684 193.936 685.596 191.856C684.508 189.776 683.964 187.408 683.964 184.752ZM706.236 184.8C706.236 182.816 705.836 181.088 705.036 179.616C704.236 178.144 703.148 177.024 701.772 176.256C700.428 175.456 698.94 175.056 697.308 175.056C695.676 175.056 694.188 175.44 692.844 176.208C691.5 176.976 690.428 178.096 689.628 179.568C688.828 181.04 688.428 182.768 688.428 184.752C688.428 186.768 688.828 188.528 689.628 190.032C690.428 191.504 691.5 192.64 692.844 193.44C694.188 194.208 695.676 194.592 697.308 194.592C698.94 194.592 700.428 194.208 701.772 193.44C703.148 192.64 704.236 191.504 705.036 190.032C705.836 188.528 706.236 186.784 706.236 184.8ZM724.802 184.752C724.802 182.064 725.346 179.712 726.434 177.696C727.522 175.648 729.01 174.064 730.898 172.944C732.818 171.824 734.962 171.264 737.33 171.264C739.378 171.264 741.282 171.744 743.042 172.704C744.802 173.632 746.146 174.864 747.074 176.4V162.48H751.49V198H747.074V193.056C746.21 194.624 744.93 195.92 743.234 196.944C741.538 197.936 739.554 198.432 737.282 198.432C734.946 198.432 732.818 197.856 730.898 196.704C729.01 195.552 727.522 193.936 726.434 191.856C725.346 189.776 724.802 187.408 724.802 184.752ZM747.074 184.8C747.074 182.816 746.674 181.088 745.874 179.616C745.074 178.144 743.986 177.024 742.61 176.256C741.266 175.456 739.778 175.056 738.146 175.056C736.514 175.056 735.026 175.44 733.682 176.208C732.338 176.976 731.266 178.096 730.466 179.568C729.666 181.04 729.266 182.768 729.266 184.752C729.266 186.768 729.666 188.528 730.466 190.032C731.266 191.504 732.338 192.64 733.682 193.44C735.026 194.208 736.514 194.592 738.146 194.592C739.778 194.592 741.266 194.208 742.61 193.44C743.986 192.64 745.074 191.504 745.874 190.032C746.674 188.528 747.074 186.784 747.074 184.8ZM791.271 183.84C791.271 184.672 791.223 185.552 791.127 186.48H770.103C770.263 189.072 771.143 191.104 772.743 192.576C774.375 194.016 776.343 194.736 778.647 194.736C780.535 194.736 782.103 194.304 783.351 193.44C784.631 192.544 785.527 191.36 786.039 189.888H790.743C790.039 192.416 788.631 194.48 786.519 196.08C784.407 197.648 781.783 198.432 778.647 198.432C776.151 198.432 773.911 197.872 771.927 196.752C769.975 195.632 768.439 194.048 767.319 192C766.199 189.92 765.639 187.52 765.639 184.8C765.639 182.08 766.183 179.696 767.271 177.648C768.359 175.6 769.879 174.032 771.831 172.944C773.815 171.824 776.087 171.264 778.647 171.264C781.143 171.264 783.351 171.808 785.271 172.896C787.191 173.984 788.663 175.488 789.687 177.408C790.743 179.296 791.271 181.44 791.271 183.84ZM786.759 182.928C786.759 181.264 786.391 179.84 785.655 178.656C784.919 177.44 783.911 176.528 782.631 175.92C781.383 175.28 779.991 174.96 778.455 174.96C776.247 174.96 774.359 175.664 772.791 177.072C771.255 178.48 770.375 180.432 770.151 182.928H786.759ZM813.981 164.112C817.149 164.112 819.709 165.008 821.661 166.8C823.613 168.592 824.589 170.992 824.589 174C824.589 177.36 823.549 179.856 821.469 181.488C819.389 183.088 816.573 183.888 813.021 183.888L812.877 188.448H809.085L808.893 180.864H810.285C813.453 180.864 815.933 180.384 817.725 179.424C819.517 178.464 820.413 176.656 820.413 174C820.413 172.08 819.837 170.56 818.685 169.44C817.533 168.32 815.981 167.76 814.029 167.76C812.045 167.76 810.477 168.304 809.325 169.392C808.205 170.448 807.645 171.904 807.645 173.76H803.517C803.517 171.84 803.949 170.16 804.813 168.72C805.677 167.248 806.893 166.112 808.461 165.312C810.061 164.512 811.901 164.112 813.981 164.112ZM810.957 198.288C810.125 198.288 809.421 198 808.845 197.424C808.269 196.848 807.981 196.144 807.981 195.312C807.981 194.48 808.269 193.776 808.845 193.2C809.421 192.624 810.125 192.336 810.957 192.336C811.757 192.336 812.429 192.624 812.973 193.2C813.549 193.776 813.837 194.48 813.837 195.312C813.837 196.144 813.549 196.848 812.973 197.424C812.429 198 811.757 198.288 810.957 198.288Z" fill="black"/>
<path d="M916.723 173.396L900.029 190.514L883.101 173.633" stroke="black" stroke-width="5" stroke-linecap="round" stroke-linejoin="round"/>
<g filter="url(#filter1_bd_122_3035)">
<path d="M174.721 336.76V339.736H168.801V359H165.153V339.736H159.201V336.76H174.721ZM187.536 341.08C188.88 341.08 190.074 341.368 191.12 341.944C192.186 342.52 193.018 343.373 193.616 344.504C194.234 345.635 194.544 347 194.544 348.6V359H190.928V349.144C190.928 347.565 190.533 346.36 189.744 345.528C188.954 344.675 187.877 344.248 186.512 344.248C185.146 344.248 184.058 344.675 183.248 345.528C182.458 346.36 182.064 347.565 182.064 349.144V359H178.416V335.32H182.064V343.416C182.682 342.669 183.461 342.093 184.4 341.688C185.36 341.283 186.405 341.08 187.536 341.08ZM201.053 339.032C200.392 339.032 199.837 338.808 199.389 338.36C198.941 337.912 198.717 337.357 198.717 336.696C198.717 336.035 198.941 335.48 199.389 335.032C199.837 334.584 200.392 334.36 201.053 334.36C201.693 334.36 202.237 334.584 202.685 335.032C203.133 335.48 203.357 336.035 203.357 336.696C203.357 337.357 203.133 337.912 202.685 338.36C202.237 338.808 201.693 339.032 201.053 339.032ZM202.845 341.368V359H199.197V341.368H202.845ZM214.034 359.288C212.648 359.288 211.4 359.043 210.29 358.552C209.202 358.04 208.338 357.357 207.698 356.504C207.058 355.629 206.717 354.659 206.674 353.592H210.45C210.514 354.339 210.866 354.968 211.506 355.48C212.168 355.971 212.989 356.216 213.97 356.216C214.994 356.216 215.784 356.024 216.338 355.64C216.914 355.235 217.202 354.723 217.202 354.104C217.202 353.443 216.882 352.952 216.242 352.632C215.624 352.312 214.632 351.96 213.266 351.576C211.944 351.213 210.866 350.861 210.034 350.52C209.202 350.179 208.477 349.656 207.858 348.952C207.261 348.248 206.962 347.32 206.962 346.168C206.962 345.229 207.24 344.376 207.794 343.608C208.349 342.819 209.138 342.2 210.162 341.752C211.208 341.304 212.402 341.08 213.746 341.08C215.752 341.08 217.362 341.592 218.578 342.616C219.816 343.619 220.477 344.995 220.562 346.744H216.914C216.85 345.955 216.53 345.325 215.954 344.856C215.378 344.387 214.6 344.152 213.618 344.152C212.658 344.152 211.922 344.333 211.41 344.696C210.898 345.059 210.642 345.539 210.642 346.136C210.642 346.605 210.813 347 211.154 347.32C211.496 347.64 211.912 347.896 212.402 348.088C212.893 348.259 213.618 348.483 214.578 348.76C215.858 349.101 216.904 349.453 217.714 349.816C218.546 350.157 219.261 350.669 219.858 351.352C220.456 352.035 220.765 352.941 220.786 354.072C220.786 355.075 220.509 355.971 219.954 356.76C219.4 357.549 218.61 358.168 217.586 358.616C216.584 359.064 215.4 359.288 214.034 359.288ZM236.689 343.96C237.307 343.149 238.15 342.467 239.217 341.912C240.283 341.357 241.489 341.08 242.833 341.08C244.369 341.08 245.766 341.464 247.025 342.232C248.305 342.979 249.307 344.035 250.033 345.4C250.758 346.765 251.121 348.333 251.121 350.104C251.121 351.875 250.758 353.464 250.033 354.872C249.307 356.259 248.305 357.347 247.025 358.136C245.766 358.904 244.369 359.288 242.833 359.288C241.489 359.288 240.294 359.021 239.249 358.488C238.203 357.933 237.35 357.251 236.689 356.44V367.384H233.041V341.368H236.689V343.96ZM247.409 350.104C247.409 348.888 247.153 347.843 246.641 346.968C246.15 346.072 245.489 345.4 244.657 344.952C243.846 344.483 242.971 344.248 242.033 344.248C241.115 344.248 240.241 344.483 239.409 344.952C238.598 345.421 237.937 346.104 237.425 347C236.934 347.896 236.689 348.952 236.689 350.168C236.689 351.384 236.934 352.451 237.425 353.368C237.937 354.264 238.598 354.947 239.409 355.416C240.241 355.885 241.115 356.12 242.033 356.12C242.971 356.12 243.846 355.885 244.657 355.416C245.489 354.925 246.15 354.221 246.641 353.304C247.153 352.387 247.409 351.32 247.409 350.104ZM258.376 343.928C258.909 343.032 259.613 342.339 260.488 341.848C261.384 341.336 262.44 341.08 263.656 341.08V344.856H262.728C261.299 344.856 260.211 345.219 259.464 345.944C258.739 346.669 258.376 347.928 258.376 349.72V359H254.728V341.368H258.376V343.928ZM274.657 359.288C272.993 359.288 271.489 358.915 270.145 358.168C268.801 357.4 267.745 356.333 266.977 354.968C266.209 353.581 265.825 351.981 265.825 350.168C265.825 348.376 266.22 346.787 267.009 345.4C267.799 344.013 268.876 342.947 270.241 342.2C271.607 341.453 273.132 341.08 274.817 341.08C276.503 341.08 278.028 341.453 279.393 342.2C280.759 342.947 281.836 344.013 282.625 345.4C283.415 346.787 283.809 348.376 283.809 350.168C283.809 351.96 283.404 353.549 282.593 354.936C281.783 356.323 280.673 357.4 279.265 358.168C277.879 358.915 276.343 359.288 274.657 359.288ZM274.657 356.12C275.596 356.12 276.471 355.896 277.281 355.448C278.113 355 278.785 354.328 279.297 353.432C279.809 352.536 280.065 351.448 280.065 350.168C280.065 348.888 279.82 347.811 279.329 346.936C278.839 346.04 278.188 345.368 277.377 344.92C276.567 344.472 275.692 344.248 274.753 344.248C273.815 344.248 272.94 344.472 272.129 344.92C271.34 345.368 270.711 346.04 270.241 346.936C269.772 347.811 269.537 348.888 269.537 350.168C269.537 352.067 270.017 353.539 270.977 354.584C271.959 355.608 273.185 356.12 274.657 356.12ZM289.272 339.032C288.61 339.032 288.056 338.808 287.608 338.36C287.16 337.912 286.936 337.357 286.936 336.696C286.936 336.035 287.16 335.48 287.608 335.032C288.056 334.584 288.61 334.36 289.272 334.36C289.912 334.36 290.456 334.584 290.904 335.032C291.352 335.48 291.576 336.035 291.576 336.696C291.576 337.357 291.352 337.912 290.904 338.36C290.456 338.808 289.912 339.032 289.272 339.032ZM291.064 362.456C291.064 364.184 290.626 365.432 289.752 366.2C288.898 366.989 287.65 367.384 286.008 367.384H284.12V364.312H285.368C286.114 364.312 286.637 364.163 286.936 363.864C287.256 363.587 287.416 363.117 287.416 362.456V341.368H291.064V362.456ZM312.013 349.752C312.013 350.413 311.97 351.011 311.885 351.544H298.413C298.52 352.952 299.042 354.083 299.981 354.936C300.92 355.789 302.072 356.216 303.437 356.216C305.4 356.216 306.786 355.395 307.597 353.752H311.533C311 355.373 310.029 356.707 308.621 357.752C307.234 358.776 305.506 359.288 303.437 359.288C301.752 359.288 300.237 358.915 298.893 358.168C297.57 357.4 296.525 356.333 295.757 354.968C295.01 353.581 294.637 351.981 294.637 350.168C294.637 348.355 295 346.765 295.725 345.4C296.472 344.013 297.506 342.947 298.829 342.2C300.173 341.453 301.709 341.08 303.437 341.08C305.101 341.08 306.584 341.443 307.885 342.168C309.186 342.893 310.2 343.917 310.925 345.24C311.65 346.541 312.013 348.045 312.013 349.752ZM308.205 348.6C308.184 347.256 307.704 346.179 306.765 345.368C305.826 344.557 304.664 344.152 303.277 344.152C302.018 344.152 300.941 344.557 300.045 345.368C299.149 346.157 298.616 347.235 298.445 348.6H308.205ZM314.387 350.168C314.387 348.355 314.75 346.765 315.475 345.4C316.222 344.013 317.246 342.947 318.547 342.2C319.848 341.453 321.342 341.08 323.027 341.08C325.16 341.08 326.92 341.592 328.307 342.616C329.715 343.619 330.664 345.059 331.155 346.936H327.219C326.899 346.061 326.387 345.379 325.683 344.888C324.979 344.397 324.094 344.152 323.027 344.152C321.534 344.152 320.339 344.685 319.443 345.752C318.568 346.797 318.131 348.269 318.131 350.168C318.131 352.067 318.568 353.549 319.443 354.616C320.339 355.683 321.534 356.216 323.027 356.216C325.139 356.216 326.536 355.288 327.219 353.432H331.155C330.643 355.224 329.683 356.653 328.275 357.72C326.867 358.765 325.118 359.288 323.027 359.288C321.342 359.288 319.848 358.915 318.547 358.168C317.246 357.4 316.222 356.333 315.475 354.968C314.75 353.581 314.387 351.981 314.387 350.168ZM339.047 344.344V354.104C339.047 354.765 339.196 355.245 339.495 355.544C339.815 355.821 340.348 355.96 341.095 355.96H343.335V359H340.455C338.812 359 337.553 358.616 336.679 357.848C335.804 357.08 335.367 355.832 335.367 354.104V344.344H333.287V341.368H335.367V336.984H339.047V341.368H343.335V344.344H339.047ZM378.689 341.368L373.217 359H369.377L365.825 345.976L362.273 359H358.433L352.929 341.368H356.641L360.321 355.544L364.065 341.368H367.873L371.457 355.48L375.105 341.368H378.689ZM380.2 350.104C380.2 348.333 380.562 346.765 381.288 345.4C382.034 344.035 383.037 342.979 384.296 342.232C385.576 341.464 386.984 341.08 388.52 341.08C389.906 341.08 391.112 341.357 392.136 341.912C393.181 342.445 394.013 343.117 394.632 343.928V341.368H398.312V359H394.632V356.376C394.013 357.208 393.17 357.901 392.104 358.456C391.037 359.011 389.821 359.288 388.456 359.288C386.941 359.288 385.554 358.904 384.296 358.136C383.037 357.347 382.034 356.259 381.288 354.872C380.562 353.464 380.2 351.875 380.2 350.104ZM394.632 350.168C394.632 348.952 394.376 347.896 393.864 347C393.373 346.104 392.722 345.421 391.912 344.952C391.101 344.483 390.226 344.248 389.288 344.248C388.349 344.248 387.474 344.483 386.664 344.952C385.853 345.4 385.192 346.072 384.68 346.968C384.189 347.843 383.944 348.888 383.944 350.104C383.944 351.32 384.189 352.387 384.68 353.304C385.192 354.221 385.853 354.925 386.664 355.416C387.496 355.885 388.37 356.12 389.288 356.12C390.226 356.12 391.101 355.885 391.912 355.416C392.722 354.947 393.373 354.264 393.864 353.368C394.376 352.451 394.632 351.384 394.632 350.168ZM409.503 359.288C408.116 359.288 406.868 359.043 405.759 358.552C404.671 358.04 403.807 357.357 403.167 356.504C402.527 355.629 402.186 354.659 402.143 353.592H405.919C405.983 354.339 406.335 354.968 406.975 355.48C407.636 355.971 408.458 356.216 409.439 356.216C410.463 356.216 411.252 356.024 411.807 355.64C412.383 355.235 412.671 354.723 412.671 354.104C412.671 353.443 412.351 352.952 411.711 352.632C411.092 352.312 410.1 351.96 408.735 351.576C407.412 351.213 406.335 350.861 405.503 350.52C404.671 350.179 403.946 349.656 403.327 348.952C402.73 348.248 402.431 347.32 402.431 346.168C402.431 345.229 402.708 344.376 403.263 343.608C403.818 342.819 404.607 342.2 405.631 341.752C406.676 341.304 407.871 341.08 409.215 341.08C411.22 341.08 412.831 341.592 414.047 342.616C415.284 343.619 415.946 344.995 416.031 346.744H412.383C412.319 345.955 411.999 345.325 411.423 344.856C410.847 344.387 410.068 344.152 409.087 344.152C408.127 344.152 407.391 344.333 406.879 344.696C406.367 345.059 406.111 345.539 406.111 346.136C406.111 346.605 406.282 347 406.623 347.32C406.964 347.64 407.38 347.896 407.871 348.088C408.362 348.259 409.087 348.483 410.047 348.76C411.327 349.101 412.372 349.453 413.183 349.816C414.015 350.157 414.73 350.669 415.327 351.352C415.924 352.035 416.234 352.941 416.255 354.072C416.255 355.075 415.978 355.971 415.423 356.76C414.868 357.549 414.079 358.168 413.055 358.616C412.052 359.064 410.868 359.288 409.503 359.288ZM427.293 350.168C427.293 348.355 427.656 346.765 428.381 345.4C429.128 344.013 430.152 342.947 431.453 342.2C432.755 341.453 434.248 341.08 435.933 341.08C438.067 341.08 439.827 341.592 441.213 342.616C442.621 343.619 443.571 345.059 444.061 346.936H440.125C439.805 346.061 439.293 345.379 438.589 344.888C437.885 344.397 437 344.152 435.933 344.152C434.44 344.152 433.245 344.685 432.349 345.752C431.475 346.797 431.037 348.269 431.037 350.168C431.037 352.067 431.475 353.549 432.349 354.616C433.245 355.683 434.44 356.216 435.933 356.216C438.045 356.216 439.443 355.288 440.125 353.432H444.061C443.549 355.224 442.589 356.653 441.181 357.72C439.773 358.765 438.024 359.288 435.933 359.288C434.248 359.288 432.755 358.915 431.453 358.168C430.152 357.4 429.128 356.333 428.381 354.968C427.656 353.581 427.293 351.981 427.293 350.168ZM451.345 343.928C451.878 343.032 452.582 342.339 453.457 341.848C454.353 341.336 455.409 341.08 456.625 341.08V344.856H455.697C454.268 344.856 453.18 345.219 452.433 345.944C451.708 346.669 451.345 347.928 451.345 349.72V359H447.697V341.368H451.345V343.928ZM476.138 349.752C476.138 350.413 476.095 351.011 476.01 351.544H462.538C462.645 352.952 463.167 354.083 464.106 354.936C465.045 355.789 466.197 356.216 467.562 356.216C469.525 356.216 470.911 355.395 471.722 353.752H475.658C475.125 355.373 474.154 356.707 472.746 357.752C471.359 358.776 469.631 359.288 467.562 359.288C465.877 359.288 464.362 358.915 463.018 358.168C461.695 357.4 460.65 356.333 459.882 354.968C459.135 353.581 458.762 351.981 458.762 350.168C458.762 348.355 459.125 346.765 459.85 345.4C460.597 344.013 461.631 342.947 462.954 342.2C464.298 341.453 465.834 341.08 467.562 341.08C469.226 341.08 470.709 341.443 472.01 342.168C473.311 342.893 474.325 343.917 475.05 345.24C475.775 346.541 476.138 348.045 476.138 349.752ZM472.33 348.6C472.309 347.256 471.829 346.179 470.89 345.368C469.951 344.557 468.789 344.152 467.402 344.152C466.143 344.152 465.066 344.557 464.17 345.368C463.274 346.157 462.741 347.235 462.57 348.6H472.33ZM478.512 350.104C478.512 348.333 478.875 346.765 479.6 345.4C480.347 344.035 481.349 342.979 482.608 342.232C483.888 341.464 485.296 341.08 486.832 341.08C488.219 341.08 489.424 341.357 490.448 341.912C491.493 342.445 492.325 343.117 492.944 343.928V341.368H496.624V359H492.944V356.376C492.325 357.208 491.483 357.901 490.416 358.456C489.349 359.011 488.133 359.288 486.768 359.288C485.253 359.288 483.867 358.904 482.608 358.136C481.349 357.347 480.347 356.259 479.6 354.872C478.875 353.464 478.512 351.875 478.512 350.104ZM492.944 350.168C492.944 348.952 492.688 347.896 492.176 347C491.685 346.104 491.035 345.421 490.224 344.952C489.413 344.483 488.539 344.248 487.6 344.248C486.661 344.248 485.787 344.483 484.976 344.952C484.165 345.4 483.504 346.072 482.992 346.968C482.501 347.843 482.256 348.888 482.256 350.104C482.256 351.32 482.501 352.387 482.992 353.304C483.504 354.221 484.165 354.925 484.976 355.416C485.808 355.885 486.683 356.12 487.6 356.12C488.539 356.12 489.413 355.885 490.224 355.416C491.035 354.947 491.685 354.264 492.176 353.368C492.688 352.451 492.944 351.384 492.944 350.168ZM505.672 344.344V354.104C505.672 354.765 505.821 355.245 506.12 355.544C506.44 355.821 506.973 355.96 507.72 355.96H509.96V359H507.08C505.437 359 504.178 358.616 503.304 357.848C502.429 357.08 501.992 355.832 501.992 354.104V344.344H499.912V341.368H501.992V336.984H505.672V341.368H509.96V344.344H505.672ZM529.482 349.752C529.482 350.413 529.439 351.011 529.354 351.544H515.882C515.989 352.952 516.511 354.083 517.45 354.936C518.389 355.789 519.541 356.216 520.906 356.216C522.869 356.216 524.255 355.395 525.066 353.752H529.002C528.469 355.373 527.498 356.707 526.09 357.752C524.703 358.776 522.975 359.288 520.906 359.288C519.221 359.288 517.706 358.915 516.362 358.168C515.039 357.4 513.994 356.333 513.226 354.968C512.479 353.581 512.106 351.981 512.106 350.168C512.106 348.355 512.469 346.765 513.194 345.4C513.941 344.013 514.975 342.947 516.298 342.2C517.642 341.453 519.178 341.08 520.906 341.08C522.57 341.08 524.053 341.443 525.354 342.168C526.655 342.893 527.669 343.917 528.394 345.24C529.119 346.541 529.482 348.045 529.482 349.752ZM525.674 348.6C525.653 347.256 525.173 346.179 524.234 345.368C523.295 344.557 522.133 344.152 520.746 344.152C519.487 344.152 518.41 344.557 517.514 345.368C516.618 346.157 516.085 347.235 515.914 348.6H525.674ZM531.856 350.104C531.856 348.333 532.219 346.765 532.944 345.4C533.691 344.035 534.693 342.979 535.952 342.232C537.232 341.464 538.651 341.08 540.208 341.08C541.36 341.08 542.491 341.336 543.6 341.848C544.731 342.339 545.627 343 546.288 343.832V335.32H549.968V359H546.288V356.344C545.691 357.197 544.859 357.901 543.792 358.456C542.747 359.011 541.541 359.288 540.176 359.288C538.64 359.288 537.232 358.904 535.952 358.136C534.693 357.347 533.691 356.259 532.944 354.872C532.219 353.464 531.856 351.875 531.856 350.104ZM546.288 350.168C546.288 348.952 546.032 347.896 545.52 347C545.029 346.104 544.379 345.421 543.568 344.952C542.757 344.483 541.883 344.248 540.944 344.248C540.005 344.248 539.131 344.483 538.32 344.952C537.509 345.4 536.848 346.072 536.336 346.968C535.845 347.843 535.6 348.888 535.6 350.104C535.6 351.32 535.845 352.387 536.336 353.304C536.848 354.221 537.509 354.925 538.32 355.416C539.152 355.885 540.027 356.12 540.944 356.12C541.883 356.12 542.757 355.885 543.568 355.416C544.379 354.947 545.029 354.264 545.52 353.368C546.032 352.451 546.288 351.384 546.288 350.168ZM570.464 344.344H567.2V359H563.52V344.344H561.44V341.368H563.52V340.12C563.52 338.093 564.053 336.621 565.12 335.704C566.208 334.765 567.904 334.296 570.208 334.296V337.336C569.099 337.336 568.32 337.549 567.872 337.976C567.424 338.381 567.2 339.096 567.2 340.12V341.368H570.464V344.344ZM577.345 343.928C577.878 343.032 578.582 342.339 579.457 341.848C580.353 341.336 581.409 341.08 582.625 341.08V344.856H581.697C580.268 344.856 579.18 345.219 578.433 345.944C577.708 346.669 577.345 347.928 577.345 349.72V359H573.697V341.368H577.345V343.928ZM593.626 359.288C591.962 359.288 590.458 358.915 589.114 358.168C587.77 357.4 586.714 356.333 585.946 354.968C585.178 353.581 584.794 351.981 584.794 350.168C584.794 348.376 585.189 346.787 585.978 345.4C586.767 344.013 587.845 342.947 589.21 342.2C590.575 341.453 592.101 341.08 593.786 341.08C595.471 341.08 596.997 341.453 598.362 342.2C599.727 342.947 600.805 344.013 601.594 345.4C602.383 346.787 602.778 348.376 602.778 350.168C602.778 351.96 602.373 353.549 601.562 354.936C600.751 356.323 599.642 357.4 598.234 358.168C596.847 358.915 595.311 359.288 593.626 359.288ZM593.626 356.12C594.565 356.12 595.439 355.896 596.25 355.448C597.082 355 597.754 354.328 598.266 353.432C598.778 352.536 599.034 351.448 599.034 350.168C599.034 348.888 598.789 347.811 598.298 346.936C597.807 346.04 597.157 345.368 596.346 344.92C595.535 344.472 594.661 344.248 593.722 344.248C592.783 344.248 591.909 344.472 591.098 344.92C590.309 345.368 589.679 346.04 589.21 346.936C588.741 347.811 588.506 348.888 588.506 350.168C588.506 352.067 588.986 353.539 589.946 354.584C590.927 355.608 592.154 356.12 593.626 356.12ZM627.728 341.08C629.115 341.08 630.352 341.368 631.44 341.944C632.55 342.52 633.414 343.373 634.032 344.504C634.672 345.635 634.992 347 634.992 348.6V359H631.376V349.144C631.376 347.565 630.982 346.36 630.192 345.528C629.403 344.675 628.326 344.248 626.96 344.248C625.595 344.248 624.507 344.675 623.696 345.528C622.907 346.36 622.512 347.565 622.512 349.144V359H618.896V349.144C618.896 347.565 618.502 346.36 617.712 345.528C616.923 344.675 615.846 344.248 614.48 344.248C613.115 344.248 612.027 344.675 611.216 345.528C610.427 346.36 610.032 347.565 610.032 349.144V359H606.384V341.368H610.032V343.384C610.63 342.659 611.387 342.093 612.304 341.688C613.222 341.283 614.203 341.08 615.248 341.08C616.656 341.08 617.915 341.379 619.024 341.976C620.134 342.573 620.987 343.437 621.584 344.568C622.118 343.501 622.95 342.659 624.08 342.04C625.211 341.4 626.427 341.08 627.728 341.08ZM671.371 336.76V359H667.723V343.768L660.939 359H658.411L651.595 343.768V359H647.947V336.76H651.883L659.691 354.2L667.467 336.76H671.371ZM674.95 350.104C674.95 348.333 675.312 346.765 676.038 345.4C676.784 344.035 677.787 342.979 679.046 342.232C680.326 341.464 681.734 341.08 683.27 341.08C684.656 341.08 685.862 341.357 686.886 341.912C687.931 342.445 688.763 343.117 689.382 343.928V341.368H693.062V359H689.382V356.376C688.763 357.208 687.92 357.901 686.854 358.456C685.787 359.011 684.571 359.288 683.206 359.288C681.691 359.288 680.304 358.904 679.046 358.136C677.787 357.347 676.784 356.259 676.038 354.872C675.312 353.464 674.95 351.875 674.95 350.104ZM689.382 350.168C689.382 348.952 689.126 347.896 688.614 347C688.123 346.104 687.472 345.421 686.662 344.952C685.851 344.483 684.976 344.248 684.038 344.248C683.099 344.248 682.224 344.483 681.414 344.952C680.603 345.4 679.942 346.072 679.43 346.968C678.939 347.843 678.694 348.888 678.694 350.104C678.694 351.32 678.939 352.387 679.43 353.304C679.942 354.221 680.603 354.925 681.414 355.416C682.246 355.885 683.12 356.12 684.038 356.12C684.976 356.12 685.851 355.885 686.662 355.416C687.472 354.947 688.123 354.264 688.614 353.368C689.126 352.451 689.382 351.384 689.382 350.168ZM701.501 343.928C702.034 343.032 702.738 342.339 703.613 341.848C704.509 341.336 705.565 341.08 706.781 341.08V344.856H705.853C704.424 344.856 703.336 345.219 702.589 345.944C701.864 346.669 701.501 347.928 701.501 349.72V359H697.853V341.368H701.501V343.928ZM708.918 350.168C708.918 348.355 709.281 346.765 710.006 345.4C710.753 344.013 711.777 342.947 713.078 342.2C714.38 341.453 715.873 341.08 717.558 341.08C719.692 341.08 721.452 341.592 722.838 342.616C724.246 343.619 725.196 345.059 725.686 346.936H721.75C721.43 346.061 720.918 345.379 720.214 344.888C719.51 344.397 718.625 344.152 717.558 344.152C716.065 344.152 714.87 344.685 713.974 345.752C713.1 346.797 712.662 348.269 712.662 350.168C712.662 352.067 713.1 353.549 713.974 354.616C714.87 355.683 716.065 356.216 717.558 356.216C719.67 356.216 721.068 355.288 721.75 353.432H725.686C725.174 355.224 724.214 356.653 722.806 357.72C721.398 358.765 719.649 359.288 717.558 359.288C715.873 359.288 714.38 358.915 713.078 358.168C711.777 357.4 710.753 356.333 710.006 354.968C709.281 353.581 708.918 351.981 708.918 350.168ZM738.442 341.08C739.786 341.08 740.981 341.368 742.026 341.944C743.093 342.52 743.925 343.373 744.522 344.504C745.141 345.635 745.45 347 745.45 348.6V359H741.834V349.144C741.834 347.565 741.439 346.36 740.65 345.528C739.861 344.675 738.783 344.248 737.418 344.248C736.053 344.248 734.965 344.675 734.154 345.528C733.365 346.36 732.97 347.565 732.97 349.144V359H729.322V335.32H732.97V343.416C733.589 342.669 734.367 342.093 735.306 341.688C736.266 341.283 737.311 341.08 738.442 341.08ZM763.639 345.88V348.952H750.487V345.88H763.639ZM782.23 354.456H772.918L771.318 359H767.51L775.478 336.728H779.702L787.67 359H783.83L782.23 354.456ZM781.206 351.48L777.59 341.144L773.942 351.48H781.206ZM794.782 343.96C795.401 343.149 796.244 342.467 797.31 341.912C798.377 341.357 799.582 341.08 800.926 341.08C802.462 341.08 803.86 341.464 805.118 342.232C806.398 342.979 807.401 344.035 808.126 345.4C808.852 346.765 809.214 348.333 809.214 350.104C809.214 351.875 808.852 353.464 808.126 354.872C807.401 356.259 806.398 357.347 805.118 358.136C803.86 358.904 802.462 359.288 800.926 359.288C799.582 359.288 798.388 359.021 797.342 358.488C796.297 357.933 795.444 357.251 794.782 356.44V367.384H791.134V341.368H794.782V343.96ZM805.502 350.104C805.502 348.888 805.246 347.843 804.734 346.968C804.244 346.072 803.582 345.4 802.75 344.952C801.94 344.483 801.065 344.248 800.126 344.248C799.209 344.248 798.334 344.483 797.502 344.952C796.692 345.421 796.03 346.104 795.518 347C795.028 347.896 794.782 348.952 794.782 350.168C794.782 351.384 795.028 352.451 795.518 353.368C796.03 354.264 796.692 354.947 797.502 355.416C798.334 355.885 799.209 356.12 800.126 356.12C801.065 356.12 801.94 355.885 802.75 355.416C803.582 354.925 804.244 354.221 804.734 353.304C805.246 352.387 805.502 351.32 805.502 350.104ZM816.47 343.928C817.003 343.032 817.707 342.339 818.582 341.848C819.478 341.336 820.534 341.08 821.75 341.08V344.856H820.822C819.393 344.856 818.305 345.219 817.558 345.944C816.833 346.669 816.47 347.928 816.47 349.72V359H812.822V341.368H816.47V343.928ZM826.959 339.032C826.298 339.032 825.743 338.808 825.295 338.36C824.847 337.912 824.623 337.357 824.623 336.696C824.623 336.035 824.847 335.48 825.295 335.032C825.743 334.584 826.298 334.36 826.959 334.36C827.599 334.36 828.143 334.584 828.591 335.032C829.039 335.48 829.263 336.035 829.263 336.696C829.263 337.357 829.039 337.912 828.591 338.36C828.143 338.808 827.599 339.032 826.959 339.032ZM828.751 341.368V359H825.103V341.368H828.751ZM837.189 335.32V359H833.541V335.32H837.189ZM851.827 354.04C853.875 352.269 855.485 350.819 856.659 349.688C857.853 348.536 858.845 347.341 859.635 346.104C860.424 344.867 860.819 343.629 860.819 342.392C860.819 341.112 860.509 340.109 859.891 339.384C859.293 338.659 858.344 338.296 857.043 338.296C855.784 338.296 854.803 338.701 854.099 339.512C853.416 340.301 853.053 341.368 853.011 342.712H849.491C849.555 340.28 850.28 338.424 851.667 337.144C853.075 335.843 854.856 335.192 857.011 335.192C859.336 335.192 861.149 335.832 862.451 337.112C863.773 338.392 864.435 340.099 864.435 342.232C864.435 343.768 864.04 345.251 863.251 346.68C862.483 348.088 861.555 349.357 860.467 350.488C859.4 351.597 858.035 352.888 856.371 354.36L854.931 355.64H865.075V358.68H849.523V356.024L851.827 354.04ZM868.279 347.032C868.279 343.341 868.898 340.461 870.135 338.392C871.394 336.301 873.549 335.256 876.599 335.256C879.65 335.256 881.794 336.301 883.031 338.392C884.29 340.461 884.919 343.341 884.919 347.032C884.919 350.765 884.29 353.688 883.031 355.8C881.794 357.891 879.65 358.936 876.599 358.936C873.549 358.936 871.394 357.891 870.135 355.8C868.898 353.688 868.279 350.765 868.279 347.032ZM881.335 347.032C881.335 345.304 881.218 343.843 880.983 342.648C880.77 341.453 880.322 340.483 879.639 339.736C878.957 338.968 877.943 338.584 876.599 338.584C875.255 338.584 874.242 338.968 873.559 339.736C872.877 340.483 872.418 341.453 872.183 342.648C871.97 343.843 871.863 345.304 871.863 347.032C871.863 348.824 871.97 350.328 872.183 351.544C872.397 352.76 872.845 353.741 873.527 354.488C874.231 355.235 875.255 355.608 876.599 355.608C877.943 355.608 878.957 355.235 879.639 354.488C880.343 353.741 880.802 352.76 881.015 351.544C881.229 350.328 881.335 348.824 881.335 347.032ZM890.795 354.04C892.843 352.269 894.454 350.819 895.627 349.688C896.822 348.536 897.814 347.341 898.603 346.104C899.393 344.867 899.787 343.629 899.787 342.392C899.787 341.112 899.478 340.109 898.859 339.384C898.262 338.659 897.313 338.296 896.011 338.296C894.753 338.296 893.771 338.701 893.067 339.512C892.385 340.301 892.022 341.368 891.979 342.712H888.459C888.523 340.28 889.249 338.424 890.635 337.144C892.043 335.843 893.825 335.192 895.979 335.192C898.305 335.192 900.118 335.832 901.419 337.112C902.742 338.392 903.403 340.099 903.403 342.232C903.403 343.768 903.009 345.251 902.219 346.68C901.451 348.088 900.523 349.357 899.435 350.488C898.369 351.597 897.003 352.888 895.339 354.36L893.899 355.64H904.043V358.68H888.491V356.024L890.795 354.04ZM907.184 341.432C907.312 339.448 908.069 337.901 909.456 336.792C910.864 335.683 912.656 335.128 914.832 335.128C916.325 335.128 917.616 335.395 918.704 335.928C919.792 336.461 920.613 337.187 921.168 338.104C921.723 339.021 922 340.056 922 341.208C922 342.531 921.648 343.661 920.944 344.6C920.24 345.539 919.397 346.168 918.416 346.488V346.616C919.675 347 920.656 347.704 921.36 348.728C922.064 349.731 922.416 351.021 922.416 352.6C922.416 353.859 922.128 354.979 921.552 355.96C920.976 356.941 920.123 357.72 918.992 358.296C917.861 358.851 916.507 359.128 914.928 359.128C912.624 359.128 910.725 358.541 909.232 357.368C907.76 356.173 906.971 354.467 906.864 352.248H910.384C910.469 353.379 910.907 354.307 911.696 355.032C912.485 355.736 913.552 356.088 914.896 356.088C916.197 356.088 917.2 355.736 917.904 355.032C918.608 354.307 918.96 353.379 918.96 352.248C918.96 350.755 918.48 349.699 917.52 349.08C916.581 348.44 915.131 348.12 913.168 348.12H912.336V345.112H913.2C914.928 345.091 916.24 344.803 917.136 344.248C918.053 343.693 918.512 342.819 918.512 341.624C918.512 340.6 918.181 339.789 917.52 339.192C916.859 338.573 915.92 338.264 914.704 338.264C913.509 338.264 912.581 338.573 911.92 339.192C911.259 339.789 910.864 340.536 910.736 341.432H907.184ZM928.2 359.224C927.539 359.224 926.984 359 926.536 358.552C926.088 358.104 925.864 357.549 925.864 356.888C925.864 356.227 926.088 355.672 926.536 355.224C926.984 354.776 927.539 354.552 928.2 354.552C928.84 354.552 929.384 354.776 929.832 355.224C930.28 355.672 930.504 356.227 930.504 356.888C930.504 357.549 930.28 358.104 929.832 358.552C929.384 359 928.84 359.224 928.2 359.224Z" fill="white"/>
</g>
<defs>
<filter id="filter0_d_122_3035" x="76" y="130" width="937" height="109" filterUnits="userSpaceOnUse" color-interpolation-filters="sRGB">
<feFlood flood-opacity="0" result="BackgroundImageFix"/>
<feColorMatrix in="SourceAlpha" type="matrix" values="0 0 0 0 0 0 0 0 0 0 0 0 0 0 0 0 0 0 127 0" result="hardAlpha"/>
<feOffset dy="4"/>
<feGaussianBlur stdDeviation="2"/>
<feComposite in2="hardAlpha" operator="out"/>
<feColorMatrix type="matrix" values="0 0 0 0 0 0 0 0 0 0 0 0 0 0 0 0 0 0 0.25 0"/>
<feBlend mode="normal" in2="BackgroundImageFix" result="effect1_dropShadow_122_3035"/>
<feBlend mode="normal" in="SourceGraphic" in2="effect1_dropShadow_122_3035" result="shape"/>
</filter>
<filter id="filter1_bd_122_3035" x="59.2012" y="234.296" width="971.303" height="233.088" filterUnits="userSpaceOnUse" color-interpolation-filters="sRGB">
<feFlood flood-opacity="0" result="BackgroundImageFix"/>
<feGaussianBlur in="BackgroundImageFix" stdDeviation="50"/>
<feComposite in2="SourceAlpha" operator="in" result="effect1_backgroundBlur_122_3035"/>
<feColorMatrix in="SourceAlpha" type="matrix" values="0 0 0 0 0 0 0 0 0 0 0 0 0 0 0 0 0 0 127 0" result="hardAlpha"/>
<feOffset dy="4"/>
<feGaussianBlur stdDeviation="2"/>
<feComposite in2="hardAlpha" operator="out"/>
<feColorMatrix type="matrix" values="0 0 0 0 0 0 0 0 0 0 0 0 0 0 0 0 0 0 0.25 0"/>
<feBlend mode="normal" in2="effect1_backgroundBlur_122_3035" result="effect2_dropShadow_122_3035"/>
<feBlend mode="normal" in="SourceGraphic" in2="effect2_dropShadow_122_3035" result="shape"/>
</filter>
</defs>
</svg>
